<?xml version="1.0" encoding="UTF-8" standalone="no"?>
<svg
   xmlns:dc="http://purl.org/dc/elements/1.1/"
   xmlns:cc="http://creativecommons.org/ns#"
   xmlns:rdf="http://www.w3.org/1999/02/22-rdf-syntax-ns#"
   xmlns:svg="http://www.w3.org/2000/svg"
   xmlns="http://www.w3.org/2000/svg"
   xmlns:sodipodi="http://sodipodi.sourceforge.net/DTD/sodipodi-0.dtd"
   xmlns:inkscape="http://www.inkscape.org/namespaces/inkscape"
   fill-opacity="1"
   color-rendering="auto"
   color-interpolation="auto"
   stroke="black"
   text-rendering="auto"
   stroke-linecap="square"
   width="800"
   stroke-miterlimit="10"
   stroke-opacity="1"
   shape-rendering="auto"
   fill="black"
   stroke-dasharray="none"
   font-weight="normal"
   stroke-width="1"
   viewBox="-20 -10 800 560"
   height="560"
   font-family="'Dialog'"
   font-style="normal"
   stroke-linejoin="miter"
   font-size="12"
   stroke-dashoffset="0"
   image-rendering="auto"
   id="svg2"
   version="1.1"
   inkscape:version="0.48.3.1 r9886"
   sodipodi:docname="UCD_Orari_Specfico_Appartenenza.svg">
  <metadata
     id="metadata191">
    <rdf:RDF>
      <cc:Work
         rdf:about="">
        <dc:format>image/svg+xml</dc:format>
        <dc:type
           rdf:resource="http://purl.org/dc/dcmitype/StillImage" />
        <dc:title />
      </cc:Work>
    </rdf:RDF>
  </metadata>
  <sodipodi:namedview
     pagecolor="#ffffff"
     bordercolor="#666666"
     borderopacity="1"
     objecttolerance="10"
     gridtolerance="10"
     guidetolerance="10"
     inkscape:pageopacity="0"
     inkscape:pageshadow="2"
     inkscape:window-width="1366"
     inkscape:window-height="743"
     id="namedview189"
     showgrid="false"
     inkscape:zoom="1.0748023"
     inkscape:cx="402.47785"
     inkscape:cy="266.3643"
     inkscape:window-x="0"
     inkscape:window-y="25"
     inkscape:window-maximized="1"
     inkscape:current-layer="svg2" />
  <!--Generated by the Batik Graphics2D SVG Generator-->
  <defs
     id="genericDefs" />
  <text
     x="20"
     xml:space="preserve"
     y="188"
     id="text9"
     style="font-size:14px;stroke:none;font-family:sans-serif;opacity:0.5">Direttore</text>
  <circle
     r="7"
     cx="50"
     cy="7"
     id="circle11"
     d="m 57,7 c 0,3.865993 -3.134007,7 -7,7 -3.865993,0 -7,-3.134007 -7,-7 0,-3.8659932 3.134007,-7 7,-7 3.865993,0 7,3.1340068 7,7 z"
     sodipodi:cx="50"
     sodipodi:cy="7"
     sodipodi:rx="7"
     sodipodi:ry="7"
     style="font-size:14px;opacity:0.5;fill:#ffafaf;stroke:none;font-family:sans-serif"
     transform="translate(0,90)" />
  <circle
     r="7"
     cx="50"
     cy="7"
     id="circle13"
     d="m 57,7 c 0,3.865993 -3.134007,7 -7,7 -3.865993,0 -7,-3.134007 -7,-7 0,-3.8659932 3.134007,-7 7,-7 3.865993,0 7,3.1340068 7,7 z"
     sodipodi:cx="50"
     sodipodi:cy="7"
     sodipodi:rx="7"
     sodipodi:ry="7"
     style="font-size:14px;fill:none;font-family:sans-serif;opacity:0.5"
     transform="translate(0,90)" />
  <line
     y2="125"
     x1="50"
     x2="50"
     y1="104"
     id="line15"
     style="font-size:14px;fill:none;font-family:sans-serif;opacity:0.5" />
  <line
     y2="108"
     x1="22"
     x2="78"
     y1="108"
     id="line17"
     style="font-size:14px;fill:none;font-family:sans-serif;opacity:0.5" />
  <line
     y2="160"
     x1="50"
     x2="36"
     y1="125"
     id="line19"
     style="font-size:14px;fill:none;font-family:sans-serif;opacity:0.5" />
  <line
     y2="160"
     x1="50"
     x2="64"
     y1="125"
     id="line21"
     style="font-size:14px;fill:none;font-family:sans-serif;opacity:0.5" />
  <line
     y2="90"
     x1="80"
     x2="115"
     y1="120"
     id="line23"
     style="font-size:14px;fill:none;font-family:sans-serif;opacity:0.5" />
  <line
     y2="60"
     x1="115"
     x2="150"
     y1="90"
     id="line25"
     style="font-size:14px;fill:none;font-family:sans-serif;opacity:0.5" />
  <ellipse
     transform="translate(150,40)"
     rx="114"
     cx="114"
     ry="19"
     cy="19"
     id="ellipse27"
     d="M 228,19 C 228,29.49341 176.96046,38 114,38 51.039539,38 0,29.49341 0,19 0,8.5065898 51.039539,0 114,0 176.96046,0 228,8.5065898 228,19 z"
     sodipodi:cx="114"
     sodipodi:cy="19"
     sodipodi:rx="114"
     sodipodi:ry="19"
     style="font-size:14px;opacity:0.5;fill:#ffffff;stroke:none;font-family:sans-serif" />
  <ellipse
     rx="114"
     ry="19"
     cx="114"
     transform="translate(150,40)"
     cy="19"
     id="ellipse29"
     d="M 228,19 C 228,29.49341 176.96046,38 114,38 51.039539,38 0,29.49341 0,19 0,8.5065898 51.039539,0 114,0 176.96046,0 228,8.5065898 228,19 z"
     sodipodi:cx="114"
     sodipodi:cy="19"
     sodipodi:rx="114"
     sodipodi:ry="19"
     style="font-size:14px;fill:none;font-family:sans-serif;opacity:0.5" />
  <text
     x="163"
     xml:space="preserve"
     y="66"
     id="text31"
     style="font-size:14px;stroke:none;font-family:sans-serif;opacity:0.5">Inserisci Fascia Utenza Oraria</text>
  <ellipse
     transform="translate(150,100)"
     rx="114"
     cx="114"
     ry="19"
     cy="19"
     id="ellipse33"
     d="M 228,19 C 228,29.49341 176.96046,38 114,38 51.039539,38 0,29.49341 0,19 0,8.5065898 51.039539,0 114,0 176.96046,0 228,8.5065898 228,19 z"
     sodipodi:cx="114"
     sodipodi:cy="19"
     sodipodi:rx="114"
     sodipodi:ry="19"
     style="font-size:14px;opacity:0.5;fill:#ffffff;stroke:none;font-family:sans-serif" />
  <ellipse
     rx="114"
     ry="19"
     cx="114"
     transform="translate(150,100)"
     cy="19"
     id="ellipse35"
     d="M 228,19 C 228,29.49341 176.96046,38 114,38 51.039539,38 0,29.49341 0,19 0,8.5065898 51.039539,0 114,0 176.96046,0 228,8.5065898 228,19 z"
     sodipodi:cx="114"
     sodipodi:cy="19"
     sodipodi:rx="114"
     sodipodi:ry="19"
     style="font-size:14px;fill:none;font-family:sans-serif;opacity:0.5" />
  <text
     x="162"
     xml:space="preserve"
     y="126"
     id="text37"
     style="font-size:14px;stroke:none;font-family:sans-serif;opacity:0.5">Modifica Fascia Utenza Oraria</text>
  <ellipse
     transform="translate(140,160)"
     rx="119"
     cx="119"
     ry="19"
     cy="19"
     id="ellipse39"
     d="M 238,19 C 238,29.49341 184.72189,38 119,38 53.278115,38 0,29.49341 0,19 0,8.5065898 53.278115,0 119,0 184.72189,0 238,8.5065898 238,19 z"
     sodipodi:cx="119"
     sodipodi:cy="19"
     sodipodi:rx="119"
     sodipodi:ry="19"
     style="font-size:14px;opacity:0.5;fill:#ffffff;stroke:none;font-family:sans-serif" />
  <ellipse
     rx="119"
     ry="19"
     cx="119"
     transform="translate(140,160)"
     cy="19"
     id="ellipse41"
     d="M 238,19 C 238,29.49341 184.72189,38 119,38 53.278115,38 0,29.49341 0,19 0,8.5065898 53.278115,0 119,0 184.72189,0 238,8.5065898 238,19 z"
     sodipodi:cx="119"
     sodipodi:cy="19"
     sodipodi:rx="119"
     sodipodi:ry="19"
     style="font-size:14px;fill:none;font-family:sans-serif;opacity:0.5" />
  <text
     x="158"
     xml:space="preserve"
     y="186"
     id="text43"
     style="font-size:14px;stroke:none;font-family:sans-serif;opacity:0.5">Rimuovi Fascia Utenza Oraria</text>
  <line
     y2="120"
     x1="150"
     x2="115"
     y1="120"
     id="line45"
     style="font-size:14px;fill:none;font-family:sans-serif;opacity:0.5" />
  <line
     y2="120"
     x1="115"
     x2="80"
     y1="120"
     id="line47"
     style="font-size:14px;fill:none;font-family:sans-serif;opacity:0.5" />
  <line
     y2="150"
     x1="80"
     x2="110"
     y1="120"
     id="line49"
     style="font-size:14px;fill:none;font-family:sans-serif;opacity:0.5" />
  <line
     y2="180"
     x1="110"
     x2="140"
     y1="150"
     id="line51"
     style="font-size:14px;fill:none;font-family:sans-serif;opacity:0.5" />
  <text
     x="16"
     xml:space="preserve"
     y="498"
     id="text53"
     style="font-size:14px;stroke:none;font-family:sans-serif">Impiegato</text>
  <circle
     transform="translate(0,400)"
     r="7"
     cx="50"
     cy="7"
     id="circle55"
     d="m 57,7 c 0,3.865993 -3.134007,7 -7,7 -3.865993,0 -7,-3.134007 -7,-7 0,-3.8659932 3.134007,-7 7,-7 3.865993,0 7,3.1340068 7,7 z"
     sodipodi:cx="50"
     sodipodi:cy="7"
     sodipodi:rx="7"
     sodipodi:ry="7"
     style="font-size:14px;opacity:0.5;fill:#ffafaf;stroke:none;font-family:sans-serif" />
  <circle
     r="7"
     cx="50"
     transform="translate(0,400)"
     cy="7"
     id="circle57"
     d="m 57,7 c 0,3.865993 -3.134007,7 -7,7 -3.865993,0 -7,-3.134007 -7,-7 0,-3.8659932 3.134007,-7 7,-7 3.865993,0 7,3.1340068 7,7 z"
     sodipodi:cx="50"
     sodipodi:cy="7"
     sodipodi:rx="7"
     sodipodi:ry="7"
     style="font-size:14px;fill:none;font-family:sans-serif" />
  <line
     y2="435"
     x1="50"
     x2="50"
     y1="414"
     id="line59"
     style="font-size:14px;fill:none;font-family:sans-serif" />
  <line
     y2="418"
     x1="22"
     x2="78"
     y1="418"
     id="line61"
     style="font-size:14px;fill:none;font-family:sans-serif" />
  <line
     y2="470"
     x1="50"
     x2="36"
     y1="435"
     id="line63"
     style="font-size:14px;fill:none;font-family:sans-serif" />
  <line
     y2="470"
     x1="50"
     x2="64"
     y1="435"
     id="line65"
     style="font-size:14px;fill:none;font-family:sans-serif" />
  <line
     y2="410"
     x1="80"
     x2="110"
     y1="440"
     id="line67"
     style="font-size:14px;fill:none;font-family:sans-serif" />
  <line
     y2="380"
     x1="110"
     x2="140"
     y1="410"
     id="line69"
     style="font-size:14px;fill:none;font-family:sans-serif" />
  <line
     y2="440"
     x1="80"
     x2="125"
     y1="440"
     id="line71"
     style="font-size:14px;fill:none;font-family:sans-serif" />
  <line
     y2="440"
     x1="125"
     x2="170"
     y1="440"
     id="line73"
     style="font-size:14px;fill:none;font-family:sans-serif" />
  <ellipse
     transform="translate(140,360)"
     rx="119"
     cx="119"
     ry="19"
     cy="19"
     id="ellipse75"
     d="M 238,19 C 238,29.49341 184.72189,38 119,38 53.278115,38 0,29.49341 0,19 0,8.5065898 53.278115,0 119,0 184.72189,0 238,8.5065898 238,19 z"
     sodipodi:cx="119"
     sodipodi:cy="19"
     sodipodi:rx="119"
     sodipodi:ry="19"
     style="font-size:14px;opacity:0;fill:#ffffff;stroke:none;font-family:sans-serif" />
  <ellipse
     rx="119"
     ry="19"
     cx="119"
     transform="translate(140,360)"
     cy="19"
     id="ellipse77"
     d="M 238,19 C 238,29.49341 184.72189,38 119,38 53.278115,38 0,29.49341 0,19 0,8.5065898 53.278115,0 119,0 184.72189,0 238,8.5065898 238,19 z"
     sodipodi:cx="119"
     sodipodi:cy="19"
     sodipodi:rx="119"
     sodipodi:ry="19"
     style="font-size:14px;fill:none;font-family:sans-serif" />
  <text
     x="178"
     xml:space="preserve"
     y="386"
     id="text79"
     style="font-size:14px;stroke:none;font-family:sans-serif">Rispondi a una richiesta</text>
  <ellipse
     transform="translate(170,420)"
     rx="74"
     cx="74"
     ry="19"
     cy="19"
     id="ellipse81"
     d="M 148,19 C 148,29.49341 114.86907,38 74,38 33.130929,38 0,29.49341 0,19 0,8.5065898 33.130929,0 74,0 c 40.86907,0 74,8.5065898 74,19 z"
     sodipodi:cx="74"
     sodipodi:cy="19"
     sodipodi:rx="74"
     sodipodi:ry="19"
     style="font-size:14px;opacity:0;fill:#ffffff;stroke:none;font-family:sans-serif" />
  <ellipse
     rx="74"
     ry="19"
     cx="74"
     transform="translate(170,420)"
     cy="19"
     id="ellipse83"
     d="M 148,19 C 148,29.49341 114.86907,38 74,38 33.130929,38 0,29.49341 0,19 0,8.5065898 33.130929,0 74,0 c 40.86907,0 74,8.5065898 74,19 z"
     sodipodi:cx="74"
     sodipodi:cy="19"
     sodipodi:rx="74"
     sodipodi:ry="19"
     style="font-size:14px;fill:none;font-family:sans-serif" />
  <text
     x="192"
     xml:space="preserve"
     y="446"
     id="text85"
     style="font-size:14px;stroke:none;font-family:sans-serif">Visualizza Orari</text>
  <ellipse
     transform="translate(140,480)"
     rx="114"
     cx="114"
     ry="19"
     cy="19"
     id="ellipse87"
     d="M 228,19 C 228,29.49341 176.96046,38 114,38 51.039539,38 0,29.49341 0,19 0,8.5065898 51.039539,0 114,0 176.96046,0 228,8.5065898 228,19 z"
     sodipodi:cx="114"
     sodipodi:cy="19"
     sodipodi:rx="114"
     sodipodi:ry="19"
     style="font-size:14px;opacity:0;fill:#ffffff;stroke:none;font-family:sans-serif" />
  <ellipse
     rx="114"
     ry="19"
     cx="114"
     transform="translate(140,480)"
     cy="19"
     id="ellipse89"
     d="M 228,19 C 228,29.49341 176.96046,38 114,38 51.039539,38 0,29.49341 0,19 0,8.5065898 51.039539,0 114,0 176.96046,0 228,8.5065898 228,19 z"
     sodipodi:cx="114"
     sodipodi:cy="19"
     sodipodi:rx="114"
     sodipodi:ry="19"
     style="font-size:14px;fill:none;font-family:sans-serif" />
  <text
     x="203"
     xml:space="preserve"
     y="506"
     id="text91"
     style="font-size:14px;stroke:none;font-family:sans-serif">Modifica Orario</text>
  <text
     x="681"
     xml:space="preserve"
     y="238"
     id="text93"
     style="font-size:14px;stroke:none;font-family:sans-serif">Genitore</text>
  <circle
     transform="translate(660,140)"
     r="7"
     cx="50"
     cy="7"
     id="circle95"
     d="m 57,7 c 0,3.865993 -3.134007,7 -7,7 -3.865993,0 -7,-3.134007 -7,-7 0,-3.8659932 3.134007,-7 7,-7 3.865993,0 7,3.1340068 7,7 z"
     sodipodi:cx="50"
     sodipodi:cy="7"
     sodipodi:rx="7"
     sodipodi:ry="7"
     style="font-size:14px;opacity:0.5;fill:#ffafaf;stroke:none;font-family:sans-serif" />
  <circle
     r="7"
     cx="50"
     transform="translate(660,140)"
     cy="7"
     id="circle97"
     d="m 57,7 c 0,3.865993 -3.134007,7 -7,7 -3.865993,0 -7,-3.134007 -7,-7 0,-3.8659932 3.134007,-7 7,-7 3.865993,0 7,3.1340068 7,7 z"
     sodipodi:cx="50"
     sodipodi:cy="7"
     sodipodi:rx="7"
     sodipodi:ry="7"
     style="font-size:14px;fill:none;font-family:sans-serif" />
  <line
     y2="175"
     x1="710"
     x2="710"
     y1="154"
     id="line99"
     style="font-size:14px;fill:none;font-family:sans-serif" />
  <line
     y2="158"
     x1="682"
     x2="738"
     y1="158"
     id="line101"
     style="font-size:14px;fill:none;font-family:sans-serif" />
  <line
     y2="210"
     x1="710"
     x2="696"
     y1="175"
     id="line103"
     style="font-size:14px;fill:none;font-family:sans-serif" />
  <line
     y2="210"
     x1="710"
     x2="724"
     y1="175"
     id="line105"
     style="font-size:14px;fill:none;font-family:sans-serif" />
  <line
     y2="205"
     x1="630"
     x2="655"
     y1="230"
     id="line107"
     style="font-size:14px;fill:none;font-family:sans-serif" />
  <line
     y2="180"
     x1="655"
     x2="680"
     y1="205"
     id="line109"
     style="font-size:14px;fill:none;font-family:sans-serif" />
  <line
     y2="470"
     x1="80"
     x2="110"
     y1="440"
     id="line111"
     style="font-size:14px;fill:none;font-family:sans-serif" />
  <line
     y2="500"
     x1="110"
     x2="140"
     y1="470"
     id="line113"
     style="font-size:14px;fill:none;font-family:sans-serif" />
  <ellipse
     transform="translate(370,210)"
     rx="129"
     cx="129"
     ry="19"
     cy="19"
     id="ellipse115"
     d="M 258,19 C 258,29.49341 200.24473,38 129,38 57.755267,38 0,29.49341 0,19 0,8.5065898 57.755267,0 129,0 200.24473,0 258,8.5065898 258,19 z"
     sodipodi:cx="129"
     sodipodi:cy="19"
     sodipodi:rx="129"
     sodipodi:ry="19"
     style="font-size:14px;opacity:0;fill:#ffffff;stroke:none;font-family:sans-serif" />
  <ellipse
     rx="129"
     ry="19"
     cx="129"
     transform="translate(370,210)"
     cy="19"
     id="ellipse117"
     d="M 258,19 C 258,29.49341 200.24473,38 129,38 57.755267,38 0,29.49341 0,19 0,8.5065898 57.755267,0 129,0 200.24473,0 258,8.5065898 258,19 z"
     sodipodi:cx="129"
     sodipodi:cy="19"
     sodipodi:rx="129"
     sodipodi:ry="19"
     style="font-size:14px;fill:none;font-family:sans-serif" />
  <text
     x="418"
     xml:space="preserve"
     y="236"
     id="text119"
     style="font-size:14px;stroke:none;font-family:sans-serif">Richiedi Modifica Orario</text>
  <rect
     x="110"
     y="10"
     width="220"
     height="20"
     id="rect121"
     style="font-size:14px;opacity:0;fill:#ffffff;stroke:none;font-family:sans-serif" />
  <rect
     x="110"
     y="30"
     width="549"
     height="499"
     id="rect123"
     style="font-size:14px;opacity:0;fill:#ffffff;stroke:none;font-family:sans-serif" />
  <rect
     x="110"
     width="220"
     height="20"
     y="10"
     id="rect125"
     style="font-size:14px;fill:none;font-family:sans-serif" />
  <rect
     x="110"
     width="549"
     height="499"
     y="30"
     id="rect127"
     style="font-size:14px;fill:none;font-family:sans-serif" />
  <text
     x="117"
     xml:space="preserve"
     y="27"
     id="text129"
     style="font-size:14px;stroke:none;font-family:sans-serif">Gestione orari</text>
  <ellipse
     transform="translate(480,110)"
     rx="74"
     cx="74"
     ry="19"
     cy="19"
     id="ellipse131"
     d="M 148,19 C 148,29.49341 114.86907,38 74,38 33.130929,38 0,29.49341 0,19 0,8.5065898 33.130929,0 74,0 c 40.86907,0 74,8.5065898 74,19 z"
     sodipodi:cx="74"
     sodipodi:cy="19"
     sodipodi:rx="74"
     sodipodi:ry="19"
     style="font-size:14px;opacity:0;fill:#ffffff;stroke:none;font-family:sans-serif" />
  <ellipse
     rx="74"
     ry="19"
     cx="74"
     transform="translate(480,110)"
     cy="19"
     id="ellipse133"
     d="M 148,19 C 148,29.49341 114.86907,38 74,38 33.130929,38 0,29.49341 0,19 0,8.5065898 33.130929,0 74,0 c 40.86907,0 74,8.5065898 74,19 z"
     sodipodi:cx="74"
     sodipodi:cy="19"
     sodipodi:rx="74"
     sodipodi:ry="19"
     style="font-size:14px;fill:none;font-family:sans-serif" />
  <text
     x="497"
     xml:space="preserve"
     y="136"
     id="text135"
     style="font-size:14px;stroke:none;font-family:sans-serif">Visualizza Orario</text>
  <line
     y2="155"
     x1="680"
     x2="655"
     y1="180"
     id="line137"
     style="font-size:14px;fill:none;font-family:sans-serif" />
  <line
     y2="130"
     x1="655"
     x2="630"
     y1="155"
     id="line139"
     style="font-size:14px;fill:none;font-family:sans-serif" />
  <line
     y2="295"
     x1="50"
     x2="50"
     y1="400"
     id="line141"
     style="font-size:14px;fill:none;font-family:sans-serif" />
  <line
     y2="190"
     x1="50"
     x2="50"
     y1="295"
     id="line143"
     style="font-size:14px;fill:none;font-family:sans-serif" />
  <line
     y2="388"
     x1="50"
     x2="44"
     y1="400"
     id="line145"
     style="font-size:14px;fill:none;font-family:sans-serif" />
  <line
     y2="388"
     x1="50"
     x2="56"
     y1="400"
     id="line147"
     style="font-size:14px;fill:none;font-family:sans-serif" />
  <polygon
     transform="matrix(-1,0,0,-1,80,430)"
     points="24,42 30,30 36,42 "
     id="polygon149"
     style="font-size:14px;fill:#ffffff;stroke:none;font-family:sans-serif" />
  <polygon
     points="24,42 30,30 36,42 "
     transform="matrix(-1,0,0,-1,80,430)"
     id="polygon151"
     style="font-size:14px;fill:none;font-family:sans-serif" />
  <ellipse
     transform="translate(380,300)"
     rx="119"
     cx="119"
     ry="19"
     cy="19"
     id="ellipse153"
     d="M 238,19 C 238,29.49341 184.72189,38 119,38 53.278115,38 0,29.49341 0,19 0,8.5065898 53.278115,0 119,0 184.72189,0 238,8.5065898 238,19 z"
     sodipodi:cx="119"
     sodipodi:cy="19"
     sodipodi:rx="119"
     sodipodi:ry="19"
     style="font-size:14px;opacity:0;fill:#ffffff;stroke:none;font-family:sans-serif" />
  <ellipse
     rx="119"
     ry="19"
     cx="119"
     transform="translate(380,300)"
     cy="19"
     id="ellipse155"
     d="M 238,19 C 238,29.49341 184.72189,38 119,38 53.278115,38 0,29.49341 0,19 0,8.5065898 53.278115,0 119,0 184.72189,0 238,8.5065898 238,19 z"
     sodipodi:cx="119"
     sodipodi:cy="19"
     sodipodi:rx="119"
     sodipodi:ry="19"
     style="font-size:14px;fill:none;font-family:sans-serif" />
  <text
     x="424"
     xml:space="preserve"
     y="326"
     id="text157"
     style="font-size:14px;stroke:none;font-family:sans-serif">Approva una richiesta</text>
  <ellipse
     transform="translate(380,420)"
     rx="119"
     cx="119"
     ry="19"
     cy="19"
     id="ellipse159"
     d="M 238,19 C 238,29.49341 184.72189,38 119,38 53.278115,38 0,29.49341 0,19 0,8.5065898 53.278115,0 119,0 184.72189,0 238,8.5065898 238,19 z"
     sodipodi:cx="119"
     sodipodi:cy="19"
     sodipodi:rx="119"
     sodipodi:ry="19"
     style="font-size:14px;opacity:0;fill:#ffffff;stroke:none;font-family:sans-serif" />
  <ellipse
     rx="119"
     ry="19"
     cx="119"
     transform="translate(380,420)"
     cy="19"
     id="ellipse161"
     d="M 238,19 C 238,29.49341 184.72189,38 119,38 53.278115,38 0,29.49341 0,19 0,8.5065898 53.278115,0 119,0 184.72189,0 238,8.5065898 238,19 z"
     sodipodi:cx="119"
     sodipodi:cy="19"
     sodipodi:rx="119"
     sodipodi:ry="19"
     style="font-size:14px;fill:none;font-family:sans-serif" />
  <text
     x="431"
     xml:space="preserve"
     y="446"
     id="text163"
     style="font-size:14px;stroke:none;font-family:sans-serif">Rifiuta una richiesta</text>
  <line
     y2="355"
     x1="370"
     x2="400"
     y1="370"
     id="line165"
     style="font-size:14px;fill:none;font-family:sans-serif" />
  <line
     y2="340"
     x1="400"
     x2="430"
     y1="355"
     id="line167"
     style="font-size:14px;fill:none;font-family:sans-serif" />
  <line
     y2="358"
     x1="370"
     x2="378"
     y1="369"
     id="line169"
     style="font-size:14px;fill:none;font-family:sans-serif" />
  <line
     y2="369"
     x1="370"
     x2="384"
     y1="369"
     id="line171"
     style="font-size:14px;fill:none;font-family:sans-serif" />
  <polygon
     transform="translate(340,310)"
     points="38,48 44,59 30,59 "
     id="polygon173"
     style="font-size:14px;fill:#ffffff;stroke:none;font-family:sans-serif" />
  <polygon
     points="38,48 44,59 30,59 "
     transform="translate(340,310)"
     id="polygon175"
     style="font-size:14px;fill:none;font-family:sans-serif" />
  <line
     y2="405"
     x1="370"
     x2="400"
     y1="390"
     id="line177"
     style="font-size:14px;fill:none;font-family:sans-serif" />
  <line
     y2="420"
     x1="400"
     x2="430"
     y1="405"
     id="line179"
     style="font-size:14px;fill:none;font-family:sans-serif" />
  <line
     y2="390"
     x1="370"
     x2="384"
     y1="390"
     id="line181"
     style="font-size:14px;fill:none;font-family:sans-serif" />
  <line
     y2="401"
     x1="370"
     x2="378"
     y1="390"
     id="line183"
     style="font-size:14px;fill:none;font-family:sans-serif" />
  <polygon
     transform="translate(340,360)"
     points="44,30 38,41 30,30 "
     id="polygon185"
     style="font-size:14px;fill:#ffffff;stroke:none;font-family:sans-serif" />
  <polygon
     points="44,30 38,41 30,30 "
     transform="translate(340,360)"
     id="polygon187"
     style="font-size:14px;fill:none;font-family:sans-serif" />
</svg>
