<?xml version="1.0" encoding="UTF-8" standalone="no"?>
<svg
   xmlns:dc="http://purl.org/dc/elements/1.1/"
   xmlns:cc="http://creativecommons.org/ns#"
   xmlns:rdf="http://www.w3.org/1999/02/22-rdf-syntax-ns#"
   xmlns:svg="http://www.w3.org/2000/svg"
   xmlns="http://www.w3.org/2000/svg"
   xmlns:sodipodi="http://sodipodi.sourceforge.net/DTD/sodipodi-0.dtd"
   xmlns:inkscape="http://www.inkscape.org/namespaces/inkscape"
   fill-opacity="1"
   color-rendering="auto"
   color-interpolation="auto"
   stroke="black"
   text-rendering="auto"
   stroke-linecap="square"
   width="800"
   stroke-miterlimit="10"
   stroke-opacity="1"
   shape-rendering="auto"
   fill="black"
   stroke-dasharray="none"
   font-weight="normal"
   stroke-width="1"
   viewBox="-20 0 800 390"
   height="390"
   font-family="'Dialog'"
   font-style="normal"
   stroke-linejoin="miter"
   font-size="12"
   stroke-dashoffset="0"
   image-rendering="auto"
   id="svg2"
   version="1.1"
   inkscape:version="0.48.3.1 r9886"
   sodipodi:docname="UCD_Piano-Pasto_Richiesta.svg">
  <metadata
     id="metadata139">
    <rdf:RDF>
      <cc:Work
         rdf:about="">
        <dc:format>image/svg+xml</dc:format>
        <dc:type
           rdf:resource="http://purl.org/dc/dcmitype/StillImage" />
      </cc:Work>
    </rdf:RDF>
  </metadata>
  <sodipodi:namedview
     pagecolor="#ffffff"
     bordercolor="#666666"
     borderopacity="1"
     objecttolerance="10"
     gridtolerance="10"
     guidetolerance="10"
     inkscape:pageopacity="0"
     inkscape:pageshadow="2"
     inkscape:window-width="1366"
     inkscape:window-height="743"
     id="namedview137"
     showgrid="false"
     inkscape:zoom="2.1496046"
     inkscape:cx="310.85827"
     inkscape:cy="212.35732"
     inkscape:window-x="0"
     inkscape:window-y="25"
     inkscape:window-maximized="1"
     inkscape:current-layer="svg2" />
  <!--Generated by the Batik Graphics2D SVG Generator-->
  <defs
     id="genericDefs" />
  <text
     x="15"
     xml:space="preserve"
     y="248"
     id="text9"
     style="font-size:14px;stroke:none;font-family:sans-serif">Impiegato</text>
  <circle
     r="7"
     cx="50"
     cy="7"
     id="circle11"
     d="m 57,7 c 0,3.865993 -3.134007,7 -7,7 -3.865993,0 -7,-3.134007 -7,-7 0,-3.8659932 3.134007,-7 7,-7 3.865993,0 7,3.1340068 7,7 z"
     sodipodi:cx="50"
     sodipodi:cy="7"
     sodipodi:rx="7"
     sodipodi:ry="7"
     style="font-size:14px;opacity:0.5;fill:#ffafaf;stroke:none;font-family:sans-serif"
     transform="translate(0,150)" />
  <circle
     r="7"
     cx="50"
     cy="7"
     id="circle13"
     d="m 57,7 c 0,3.865993 -3.134007,7 -7,7 -3.865993,0 -7,-3.134007 -7,-7 0,-3.8659932 3.134007,-7 7,-7 3.865993,0 7,3.1340068 7,7 z"
     sodipodi:cx="50"
     sodipodi:cy="7"
     sodipodi:rx="7"
     sodipodi:ry="7"
     style="font-size:14px;fill:none;font-family:sans-serif"
     transform="translate(0,150)" />
  <line
     y2="185"
     x1="50"
     x2="50"
     y1="164"
     id="line15"
     style="font-size:14px;fill:none;font-family:sans-serif" />
  <line
     y2="168"
     x1="22"
     x2="78"
     y1="168"
     id="line17"
     style="font-size:14px;fill:none;font-family:sans-serif" />
  <line
     y2="220"
     x1="50"
     x2="36"
     y1="185"
     id="line19"
     style="font-size:14px;fill:none;font-family:sans-serif" />
  <line
     y2="220"
     x1="50"
     x2="64"
     y1="185"
     id="line21"
     style="font-size:14px;fill:none;font-family:sans-serif" />
  <line
     y2="160"
     x1="80"
     x2="110"
     y1="190"
     id="line23"
     style="font-size:14px;fill:none;font-family:sans-serif" />
  <line
     y2="130"
     x1="110"
     x2="140"
     y1="160"
     id="line25"
     style="font-size:14px;fill:none;font-family:sans-serif" />
  <line
     y2="190"
     x1="80"
     x2="120"
     y1="190"
     id="line27"
     style="font-size:14px;fill:none;font-family:sans-serif" />
  <line
     y2="190"
     x1="120"
     x2="160"
     y1="190"
     id="line29"
     style="font-size:14px;fill:none;font-family:sans-serif" />
  <ellipse
     transform="translate(140,110)"
     rx="119"
     cx="119"
     ry="19"
     cy="19"
     id="ellipse31"
     d="M 238,19 C 238,29.49341 184.72189,38 119,38 53.278115,38 0,29.49341 0,19 0,8.5065898 53.278115,0 119,0 184.72189,0 238,8.5065898 238,19 z"
     sodipodi:cx="119"
     sodipodi:cy="19"
     sodipodi:rx="119"
     sodipodi:ry="19"
     style="font-size:14px;opacity:0.96;fill:#ff6633;stroke:none;font-family:sans-serif;fill-opacity:1" />
  <ellipse
     rx="119"
     ry="19"
     cx="119"
     transform="translate(140,110)"
     cy="19"
     id="ellipse33"
     d="M 238,19 C 238,29.49341 184.72189,38 119,38 53.278115,38 0,29.49341 0,19 0,8.5065898 53.278115,0 119,0 184.72189,0 238,8.5065898 238,19 z"
     sodipodi:cx="119"
     sodipodi:cy="19"
     sodipodi:rx="119"
     sodipodi:ry="19"
     style="font-size:14px;fill:none;font-family:sans-serif" />
  <text
     x="177"
     xml:space="preserve"
     y="136"
     id="text35"
     style="font-size:14px;stroke:none;font-family:sans-serif">Rispondi a una richiesta</text>
  <ellipse
     transform="translate(160,170)"
     rx="94"
     cx="94"
     ry="19"
     cy="19"
     id="ellipse37"
     d="M 188,19 C 188,29.49341 145.91477,38 94,38 42.085234,38 0,29.49341 0,19 0,8.5065898 42.085234,0 94,0 c 51.91477,0 94,8.5065898 94,19 z"
     sodipodi:cx="94"
     sodipodi:cy="19"
     sodipodi:rx="94"
     sodipodi:ry="19"
     style="font-size:14px;opacity:0;fill:#ffffff;stroke:none;font-family:sans-serif" />
  <ellipse
     rx="94"
     ry="19"
     cx="94"
     transform="translate(160,170)"
     cy="19"
     id="ellipse39"
     d="M 188,19 C 188,29.49341 145.91477,38 94,38 42.085234,38 0,29.49341 0,19 0,8.5065898 42.085234,0 94,0 c 51.91477,0 94,8.5065898 94,19 z"
     sodipodi:cx="94"
     sodipodi:cy="19"
     sodipodi:rx="94"
     sodipodi:ry="19"
     style="font-size:14px;fill:none;font-family:sans-serif" />
  <text
     x="180"
     xml:space="preserve"
     y="196"
     id="text41"
     style="font-size:14px;stroke:none;font-family:sans-serif">Visualizza Piani Pasto</text>
  <ellipse
     transform="translate(140,230)"
     rx="119"
     cx="119"
     ry="19"
     cy="19"
     id="ellipse43"
     d="M 238,19 C 238,29.49341 184.72189,38 119,38 53.278115,38 0,29.49341 0,19 0,8.5065898 53.278115,0 119,0 184.72189,0 238,8.5065898 238,19 z"
     sodipodi:cx="119"
     sodipodi:cy="19"
     sodipodi:rx="119"
     sodipodi:ry="19"
     style="font-size:14px;opacity:0;fill:#ffffff;stroke:none;font-family:sans-serif" />
  <ellipse
     rx="119"
     ry="19"
     cx="119"
     transform="translate(140,230)"
     cy="19"
     id="ellipse45"
     d="M 238,19 C 238,29.49341 184.72189,38 119,38 53.278115,38 0,29.49341 0,19 0,8.5065898 53.278115,0 119,0 184.72189,0 238,8.5065898 238,19 z"
     sodipodi:cx="119"
     sodipodi:cy="19"
     sodipodi:rx="119"
     sodipodi:ry="19"
     style="font-size:14px;fill:none;font-family:sans-serif" />
  <text
     x="191"
     xml:space="preserve"
     y="256"
     id="text47"
     style="font-size:14px;stroke:none;font-family:sans-serif">Modifica Piani Pasto</text>
  <text
     x="680"
     xml:space="preserve"
     y="348"
     id="text49"
     style="font-size:14px;stroke:none;font-family:sans-serif">Genitore</text>
  <circle
     transform="translate(660,250)"
     r="7"
     cx="50"
     cy="7"
     id="circle51"
     d="m 57,7 c 0,3.865993 -3.134007,7 -7,7 -3.865993,0 -7,-3.134007 -7,-7 0,-3.8659932 3.134007,-7 7,-7 3.865993,0 7,3.1340068 7,7 z"
     sodipodi:cx="50"
     sodipodi:cy="7"
     sodipodi:rx="7"
     sodipodi:ry="7"
     style="font-size:14px;opacity:0.5;fill:#ffafaf;stroke:none;font-family:sans-serif" />
  <circle
     r="7"
     cx="50"
     transform="translate(660,250)"
     cy="7"
     id="circle53"
     d="m 57,7 c 0,3.865993 -3.134007,7 -7,7 -3.865993,0 -7,-3.134007 -7,-7 0,-3.8659932 3.134007,-7 7,-7 3.865993,0 7,3.1340068 7,7 z"
     sodipodi:cx="50"
     sodipodi:cy="7"
     sodipodi:rx="7"
     sodipodi:ry="7"
     style="font-size:14px;fill:none;font-family:sans-serif" />
  <line
     y2="285"
     x1="710"
     x2="710"
     y1="264"
     id="line55"
     style="font-size:14px;fill:none;font-family:sans-serif" />
  <line
     y2="268"
     x1="682"
     x2="738"
     y1="268"
     id="line57"
     style="font-size:14px;fill:none;font-family:sans-serif" />
  <line
     y2="320"
     x1="710"
     x2="696"
     y1="285"
     id="line59"
     style="font-size:14px;fill:none;font-family:sans-serif" />
  <line
     y2="320"
     x1="710"
     x2="724"
     y1="285"
     id="line61"
     style="font-size:14px;fill:none;font-family:sans-serif" />
  <line
     y2="270"
     x1="630"
     x2="655"
     y1="250"
     id="line63"
     style="font-size:14px;fill:none;font-family:sans-serif" />
  <line
     y2="290"
     x1="655"
     x2="680"
     y1="270"
     id="line65"
     style="font-size:14px;fill:none;font-family:sans-serif" />
  <line
     y2="220"
     x1="80"
     x2="110"
     y1="190"
     id="line67"
     style="font-size:14px;fill:none;font-family:sans-serif" />
  <line
     y2="250"
     x1="110"
     x2="140"
     y1="220"
     id="line69"
     style="font-size:14px;fill:none;font-family:sans-serif" />
  <ellipse
     transform="translate(420,230)"
     rx="104"
     cx="104"
     ry="24"
     cy="24"
     id="ellipse71"
     d="M 208,24 C 208,37.254834 161.43761,48 104,48 46.562386,48 0,37.254834 0,24 0,10.745166 46.562386,0 104,0 161.43761,0 208,10.745166 208,24 z"
     sodipodi:cx="104"
     sodipodi:cy="24"
     sodipodi:rx="104"
     sodipodi:ry="24"
     style="font-size:14px;opacity:0.96;fill:#ff6633;stroke:none;font-family:sans-serif;fill-opacity:1" />
  <ellipse
     rx="104"
     ry="24"
     cx="104"
     transform="translate(420,230)"
     cy="24"
     id="ellipse73"
     d="M 208,24 C 208,37.254834 161.43761,48 104,48 46.562386,48 0,37.254834 0,24 0,10.745166 46.562386,0 104,0 161.43761,0 208,10.745166 208,24 z"
     sodipodi:cx="104"
     sodipodi:cy="24"
     sodipodi:rx="104"
     sodipodi:ry="24"
     style="font-size:14px;fill:none;font-family:sans-serif" />
  <text
     x="467"
     xml:space="preserve"
     y="252"
     id="text75"
     style="font-size:14px;stroke:none;font-family:sans-serif">Richiedi Modifica</text>
  <text
     x="485"
     xml:space="preserve"
     y="269"
     id="text77"
     style="font-size:14px;stroke:none;font-family:sans-serif">Piano Pasto</text>
  <rect
     x="110"
     y="20"
     width="220"
     height="20"
     id="rect79"
     style="font-size:14px;opacity:0;fill:#ffffff;stroke:none;font-family:sans-serif" />
  <rect
     x="110"
     y="40"
     width="549"
     height="329"
     id="rect81"
     style="font-size:14px;opacity:0;fill:#ffffff;stroke:none;font-family:sans-serif" />
  <rect
     x="110"
     width="220"
     height="20"
     y="20"
     id="rect83"
     style="font-size:14px;fill:none;font-family:sans-serif" />
  <rect
     x="110"
     width="549"
     height="329"
     y="40"
     id="rect85"
     style="font-size:14px;fill:none;font-family:sans-serif" />
  <text
     x="117"
     xml:space="preserve"
     y="37"
     id="text87"
     style="font-size:14px;stroke:none;font-family:sans-serif">Gestione Piani Pasto</text>
  <ellipse
     transform="translate(420,300)"
     rx="104"
     cx="104"
     ry="24"
     cy="24"
     id="ellipse89"
     d="M 208,24 C 208,37.254834 161.43761,48 104,48 46.562386,48 0,37.254834 0,24 0,10.745166 46.562386,0 104,0 161.43761,0 208,10.745166 208,24 z"
     sodipodi:cx="104"
     sodipodi:cy="24"
     sodipodi:rx="104"
     sodipodi:ry="24"
     style="font-size:14px;opacity:0;fill:#ffffff;stroke:none;font-family:sans-serif" />
  <ellipse
     rx="104"
     ry="24"
     cx="104"
     transform="translate(420,300)"
     cy="24"
     id="ellipse91"
     d="M 208,24 C 208,37.254834 161.43761,48 104,48 46.562386,48 0,37.254834 0,24 0,10.745166 46.562386,0 104,0 161.43761,0 208,10.745166 208,24 z"
     sodipodi:cx="104"
     sodipodi:cy="24"
     sodipodi:rx="104"
     sodipodi:ry="24"
     style="font-size:14px;fill:none;font-family:sans-serif" />
  <text
     x="447"
     xml:space="preserve"
     y="322"
     id="text93"
     style="font-size:14px;stroke:none;font-family:sans-serif">Visualizza Piano Pasto</text>
  <text
     x="481"
     xml:space="preserve"
     y="339"
     id="text95"
     style="font-size:14px;stroke:none;font-family:sans-serif">del Bambino</text>
  <line
     y2="310"
     x1="680"
     x2="655"
     y1="290"
     id="line97"
     style="font-size:14px;fill:none;font-family:sans-serif" />
  <line
     y2="330"
     x1="655"
     x2="630"
     y1="310"
     id="line99"
     style="font-size:14px;fill:none;font-family:sans-serif" />
  <ellipse
     transform="translate(380,60)"
     rx="119"
     cx="119"
     ry="19"
     cy="19"
     id="ellipse101"
     d="M 238,19 C 238,29.49341 184.72189,38 119,38 53.278115,38 0,29.49341 0,19 0,8.5065898 53.278115,0 119,0 184.72189,0 238,8.5065898 238,19 z"
     sodipodi:cx="119"
     sodipodi:cy="19"
     sodipodi:rx="119"
     sodipodi:ry="19"
     style="font-size:14px;opacity:0.96;fill:#ff6633;stroke:none;font-family:sans-serif;fill-opacity:1" />
  <ellipse
     rx="119"
     ry="19"
     cx="119"
     transform="translate(380,60)"
     cy="19"
     id="ellipse103"
     d="M 238,19 C 238,29.49341 184.72189,38 119,38 53.278115,38 0,29.49341 0,19 0,8.5065898 53.278115,0 119,0 184.72189,0 238,8.5065898 238,19 z"
     sodipodi:cx="119"
     sodipodi:cy="19"
     sodipodi:rx="119"
     sodipodi:ry="19"
     style="font-size:14px;fill:none;font-family:sans-serif" />
  <text
     x="423"
     xml:space="preserve"
     y="86"
     id="text105"
     style="font-size:14px;stroke:none;font-family:sans-serif">Approva una richiesta</text>
  <ellipse
     transform="translate(380,160)"
     rx="119"
     cx="119"
     ry="19"
     cy="19"
     id="ellipse107"
     d="M 238,19 C 238,29.49341 184.72189,38 119,38 53.278115,38 0,29.49341 0,19 0,8.5065898 53.278115,0 119,0 184.72189,0 238,8.5065898 238,19 z"
     sodipodi:cx="119"
     sodipodi:cy="19"
     sodipodi:rx="119"
     sodipodi:ry="19"
     style="font-size:14px;opacity:0.96;fill:#ff6633;stroke:none;font-family:sans-serif;fill-opacity:1" />
  <ellipse
     rx="119"
     ry="19"
     cx="119"
     transform="translate(380,160)"
     cy="19"
     id="ellipse109"
     d="M 238,19 C 238,29.49341 184.72189,38 119,38 53.278115,38 0,29.49341 0,19 0,8.5065898 53.278115,0 119,0 184.72189,0 238,8.5065898 238,19 z"
     sodipodi:cx="119"
     sodipodi:cy="19"
     sodipodi:rx="119"
     sodipodi:ry="19"
     style="font-size:14px;fill:none;font-family:sans-serif" />
  <text
     x="430"
     xml:space="preserve"
     y="186"
     id="text111"
     style="font-size:14px;stroke:none;font-family:sans-serif">Rifiuta una richiesta</text>
  <line
     y2="110"
     x1="370"
     x2="400"
     y1="120"
     id="line113"
     style="font-size:14px;fill:none;font-family:sans-serif" />
  <line
     y2="100"
     x1="400"
     x2="430"
     y1="110"
     id="line115"
     style="font-size:14px;fill:none;font-family:sans-serif" />
  <line
     y2="110"
     x1="370"
     x2="379"
     y1="119"
     id="line117"
     style="font-size:14px;fill:none;font-family:sans-serif" />
  <line
     y2="120"
     x1="370"
     x2="383"
     y1="119"
     id="line119"
     style="font-size:14px;fill:none;font-family:sans-serif" />
  <polygon
     transform="translate(340,70)"
     points="39,40 43,50 30,49 "
     id="polygon121"
     style="font-size:14px;fill:#ffffff;stroke:none;font-family:sans-serif" />
  <polygon
     points="39,40 43,50 30,49 "
     transform="translate(340,70)"
     id="polygon123"
     style="font-size:14px;fill:#ff6633;font-family:sans-serif;fill-opacity:1;opacity:0.96" />
  <line
     y2="150"
     x1="370"
     x2="400"
     y1="140"
     id="line125"
     style="font-size:14px;fill:none;font-family:sans-serif" />
  <line
     y2="160"
     x1="400"
     x2="430"
     y1="150"
     id="line127"
     style="font-size:14px;fill:none;font-family:sans-serif" />
  <line
     y2="139"
     x1="370"
     x2="383"
     y1="140"
     id="line129"
     style="font-size:14px;fill:none;font-family:sans-serif" />
  <line
     y2="149"
     x1="370"
     x2="379"
     y1="140"
     id="line131"
     style="font-size:14px;fill:none;font-family:sans-serif" />
  <polygon
     transform="translate(340,110)"
     points="43,29 39,39 30,30 "
     id="polygon133"
     style="font-size:14px;fill:#ffffff;stroke:none;font-family:sans-serif" />
  <polygon
     points="43,29 39,39 30,30 "
     transform="translate(340,110)"
     id="polygon135"
     style="font-size:14px;fill:#ff6633;font-family:sans-serif;fill-opacity:1;opacity:0.96" />
</svg>
