<?xml version="1.0" encoding="UTF-8" standalone="no"?>
<svg
   xmlns:dc="http://purl.org/dc/elements/1.1/"
   xmlns:cc="http://creativecommons.org/ns#"
   xmlns:rdf="http://www.w3.org/1999/02/22-rdf-syntax-ns#"
   xmlns:svg="http://www.w3.org/2000/svg"
   xmlns="http://www.w3.org/2000/svg"
   xmlns:sodipodi="http://sodipodi.sourceforge.net/DTD/sodipodi-0.dtd"
   xmlns:inkscape="http://www.inkscape.org/namespaces/inkscape"
   fill-opacity="1"
   color-rendering="auto"
   color-interpolation="auto"
   stroke="black"
   text-rendering="auto"
   stroke-linecap="square"
   width="790"
   stroke-miterlimit="10"
   stroke-opacity="1"
   shape-rendering="auto"
   fill="black"
   stroke-dasharray="none"
   font-weight="normal"
   stroke-width="1"
   viewBox="-20 -10 790 520"
   height="520"
   font-family="'Dialog'"
   font-style="normal"
   stroke-linejoin="miter"
   font-size="12"
   stroke-dashoffset="0"
   image-rendering="auto"
   id="svg2"
   version="1.1"
   inkscape:version="0.48.3.1 r9886"
   sodipodi:docname="UCD_Pagamenti.svg">
  <metadata
     id="metadata141">
    <rdf:RDF>
      <cc:Work
         rdf:about="">
        <dc:format>image/svg+xml</dc:format>
        <dc:type
           rdf:resource="http://purl.org/dc/dcmitype/StillImage" />
        <dc:title></dc:title>
      </cc:Work>
    </rdf:RDF>
  </metadata>
  <sodipodi:namedview
     pagecolor="#ffffff"
     bordercolor="#666666"
     borderopacity="1"
     objecttolerance="10"
     gridtolerance="10"
     guidetolerance="10"
     inkscape:pageopacity="0"
     inkscape:pageshadow="2"
     inkscape:window-width="1366"
     inkscape:window-height="743"
     id="namedview139"
     showgrid="false"
     inkscape:zoom="1.0884074"
     inkscape:cx="454.16736"
     inkscape:cy="269.53734"
     inkscape:window-x="0"
     inkscape:window-y="25"
     inkscape:window-maximized="1"
     inkscape:current-layer="svg2" />
  <!--Generated by the Batik Graphics2D SVG Generator-->
  <defs
     id="genericDefs" />
  <text
     x="36"
     xml:space="preserve"
     y="328"
     id="text9"
     style="font-size:14px;stroke:none;font-family:sans-serif">Impiegato</text>
  <circle
     r="7"
     cx="70"
     cy="7"
     id="circle11"
     d="m 77,7 c 0,3.865993 -3.134007,7 -7,7 -3.865993,0 -7,-3.134007 -7,-7 0,-3.8659932 3.134007,-7 7,-7 3.865993,0 7,3.1340068 7,7 z"
     sodipodi:cx="70"
     sodipodi:cy="7"
     sodipodi:rx="7"
     sodipodi:ry="7"
     style="font-size:14px;opacity:0.5;fill:#ffafaf;stroke:none;font-family:sans-serif"
     transform="translate(0,230)" />
  <circle
     r="7"
     cx="70"
     cy="7"
     id="circle13"
     d="m 77,7 c 0,3.865993 -3.134007,7 -7,7 -3.865993,0 -7,-3.134007 -7,-7 0,-3.8659932 3.134007,-7 7,-7 3.865993,0 7,3.1340068 7,7 z"
     sodipodi:cx="70"
     sodipodi:cy="7"
     sodipodi:rx="7"
     sodipodi:ry="7"
     style="font-size:14px;fill:none;font-family:sans-serif"
     transform="translate(0,230)" />
  <line
     y2="265"
     x1="70"
     x2="70"
     y1="244"
     id="line15"
     style="font-size:14px;fill:none;font-family:sans-serif" />
  <line
     y2="248"
     x1="42"
     x2="98"
     y1="248"
     id="line17"
     style="font-size:14px;fill:none;font-family:sans-serif" />
  <line
     y2="300"
     x1="70"
     x2="56"
     y1="265"
     id="line19"
     style="font-size:14px;fill:none;font-family:sans-serif" />
  <line
     y2="300"
     x1="70"
     x2="84"
     y1="265"
     id="line21"
     style="font-size:14px;fill:none;font-family:sans-serif" />
  <ellipse
     transform="translate(240,40)"
     rx="74"
     cx="74"
     ry="29"
     cy="29"
     id="ellipse23"
     d="M 148,29 C 148,45.016258 114.86907,58 74,58 33.130929,58 0,45.016258 0,29 0,12.983742 33.130929,0 74,0 c 40.86907,0 74,12.983742 74,29 z"
     sodipodi:cx="74"
     sodipodi:cy="29"
     sodipodi:rx="74"
     sodipodi:ry="29"
     style="font-size:14px;opacity:0;fill:#ffffff;stroke:none;font-family:sans-serif" />
  <ellipse
     rx="74"
     ry="29"
     cx="74"
     transform="translate(240,40)"
     cy="29"
     id="ellipse25"
     d="M 148,29 C 148,45.016258 114.86907,58 74,58 33.130929,58 0,45.016258 0,29 0,12.983742 33.130929,0 74,0 c 40.86907,0 74,12.983742 74,29 z"
     sodipodi:cx="74"
     sodipodi:cy="29"
     sodipodi:rx="74"
     sodipodi:ry="29"
     style="font-size:14px;fill:none;font-family:sans-serif" />
  <text
     x="282"
     xml:space="preserve"
     y="67"
     id="text27"
     style="font-size:14px;stroke:none;font-family:sans-serif">Visualizza</text>
  <text
     x="258"
     xml:space="preserve"
     y="84"
     id="text29"
     style="font-size:14px;stroke:none;font-family:sans-serif">Stato Pagamenti</text>
  <ellipse
     transform="translate(240,130)"
     rx="74"
     cx="74"
     ry="29"
     cy="29"
     id="ellipse31"
     d="M 148,29 C 148,45.016258 114.86907,58 74,58 33.130929,58 0,45.016258 0,29 0,12.983742 33.130929,0 74,0 c 40.86907,0 74,12.983742 74,29 z"
     sodipodi:cx="74"
     sodipodi:cy="29"
     sodipodi:rx="74"
     sodipodi:ry="29"
     style="font-size:14px;opacity:0;fill:#ffffff;stroke:none;font-family:sans-serif" />
  <ellipse
     rx="74"
     ry="29"
     cx="74"
     transform="translate(240,130)"
     cy="29"
     id="ellipse33"
     d="M 148,29 C 148,45.016258 114.86907,58 74,58 33.130929,58 0,45.016258 0,29 0,12.983742 33.130929,0 74,0 c 40.86907,0 74,12.983742 74,29 z"
     sodipodi:cx="74"
     sodipodi:cy="29"
     sodipodi:rx="74"
     sodipodi:ry="29"
     style="font-size:14px;fill:none;font-family:sans-serif" />
  <text
     x="255"
     xml:space="preserve"
     y="166"
     id="text35"
     style="font-size:14px;stroke:none;font-family:sans-serif">Invio promemoria</text>
  <ellipse
     transform="translate(240,240)"
     rx="74"
     cx="74"
     ry="29"
     cy="29"
     id="ellipse37"
     d="M 148,29 C 148,45.016258 114.86907,58 74,58 33.130929,58 0,45.016258 0,29 0,12.983742 33.130929,0 74,0 c 40.86907,0 74,12.983742 74,29 z"
     sodipodi:cx="74"
     sodipodi:cy="29"
     sodipodi:rx="74"
     sodipodi:ry="29"
     style="font-size:14px;opacity:0;fill:#ffffff;stroke:none;font-family:sans-serif" />
  <ellipse
     rx="74"
     ry="29"
     cx="74"
     transform="translate(240,240)"
     cy="29"
     id="ellipse39"
     d="M 148,29 C 148,45.016258 114.86907,58 74,58 33.130929,58 0,45.016258 0,29 0,12.983742 33.130929,0 74,0 c 40.86907,0 74,12.983742 74,29 z"
     sodipodi:cx="74"
     sodipodi:cy="29"
     sodipodi:rx="74"
     sodipodi:ry="29"
     style="font-size:14px;fill:none;font-family:sans-serif" />
  <text
     x="266"
     xml:space="preserve"
     y="267"
     id="text41"
     style="font-size:14px;stroke:none;font-family:sans-serif">Emetti Fattura</text>
  <text
     x="277"
     xml:space="preserve"
     y="284"
     id="text43"
     style="font-size:14px;stroke:none;font-family:sans-serif">Pagamento</text>
  <ellipse
     transform="translate(240,420)"
     rx="74"
     cx="74"
     ry="29"
     cy="29"
     id="ellipse45"
     d="M 148,29 C 148,45.016258 114.86907,58 74,58 33.130929,58 0,45.016258 0,29 0,12.983742 33.130929,0 74,0 c 40.86907,0 74,12.983742 74,29 z"
     sodipodi:cx="74"
     sodipodi:cy="29"
     sodipodi:rx="74"
     sodipodi:ry="29"
     style="font-size:14px;opacity:0;fill:#ffffff;stroke:none;font-family:sans-serif" />
  <ellipse
     rx="74"
     ry="29"
     cx="74"
     transform="translate(240,420)"
     cy="29"
     id="ellipse47"
     d="M 148,29 C 148,45.016258 114.86907,58 74,58 33.130929,58 0,45.016258 0,29 0,12.983742 33.130929,0 74,0 c 40.86907,0 74,12.983742 74,29 z"
     sodipodi:cx="74"
     sodipodi:cy="29"
     sodipodi:rx="74"
     sodipodi:ry="29"
     style="font-size:14px;fill:none;font-family:sans-serif" />
  <text
     x="288"
     xml:space="preserve"
     y="447"
     id="text49"
     style="font-size:14px;stroke:none;font-family:sans-serif">Registra</text>
  <text
     x="259"
     xml:space="preserve"
     y="464"
     id="text51"
     style="font-size:14px;stroke:none;font-family:sans-serif">Variazione Extra</text>
  <line
     y2="165"
     x1="100"
     x2="170"
     y1="260"
     id="line53"
     style="font-size:14px;fill:none;font-family:sans-serif" />
  <line
     y2="70"
     x1="170"
     x2="240"
     y1="165"
     id="line55"
     style="font-size:14px;fill:none;font-family:sans-serif" />
  <line
     y2="205"
     x1="100"
     x2="170"
     y1="260"
     id="line57"
     style="font-size:14px;fill:none;font-family:sans-serif" />
  <line
     y2="150"
     x1="170"
     x2="240"
     y1="205"
     id="line59"
     style="font-size:14px;fill:none;font-family:sans-serif" />
  <line
     y2="310"
     x1="100"
     x2="170"
     y1="260"
     id="line61"
     style="font-size:14px;fill:none;font-family:sans-serif" />
  <line
     y2="360"
     x1="170"
     x2="240"
     y1="310"
     id="line63"
     style="font-size:14px;fill:none;font-family:sans-serif" />
  <line
     y2="355"
     x1="100"
     x2="170"
     y1="260"
     id="line65"
     style="font-size:14px;fill:none;font-family:sans-serif" />
  <line
     y2="450"
     x1="170"
     x2="240"
     y1="355"
     id="line67"
     style="font-size:14px;fill:none;font-family:sans-serif" />
  <rect
     x="130"
     y="10"
     width="204"
     height="20"
     id="rect69"
     style="font-size:14px;opacity:0;fill:#ffffff;stroke:none;font-family:sans-serif" />
  <rect
     x="130"
     y="30"
     width="509"
     height="459"
     id="rect71"
     style="font-size:14px;opacity:0;fill:#ffffff;stroke:none;font-family:sans-serif" />
  <rect
     x="130"
     width="204"
     height="20"
     y="10"
     id="rect73"
     style="font-size:14px;fill:none;font-family:sans-serif" />
  <rect
     x="130"
     width="509"
     height="459"
     y="30"
     id="rect75"
     style="font-size:14px;fill:none;font-family:sans-serif" />
  <text
     x="137"
     xml:space="preserve"
     y="27"
     id="text77"
     style="font-size:14px;stroke:none;font-family:sans-serif">Pagamenti</text>
  <ellipse
     transform="translate(240,330)"
     rx="74"
     cx="74"
     ry="29"
     cy="29"
     id="ellipse79"
     d="M 148,29 C 148,45.016258 114.86907,58 74,58 33.130929,58 0,45.016258 0,29 0,12.983742 33.130929,0 74,0 c 40.86907,0 74,12.983742 74,29 z"
     sodipodi:cx="74"
     sodipodi:cy="29"
     sodipodi:rx="74"
     sodipodi:ry="29"
     style="font-size:14px;opacity:0;fill:#ffffff;stroke:none;font-family:sans-serif" />
  <ellipse
     rx="74"
     ry="29"
     cx="74"
     transform="translate(240,330)"
     cy="29"
     id="ellipse81"
     d="M 148,29 C 148,45.016258 114.86907,58 74,58 33.130929,58 0,45.016258 0,29 0,12.983742 33.130929,0 74,0 c 40.86907,0 74,12.983742 74,29 z"
     sodipodi:cx="74"
     sodipodi:cy="29"
     sodipodi:rx="74"
     sodipodi:ry="29"
     style="font-size:14px;fill:none;font-family:sans-serif" />
  <text
     x="288"
     xml:space="preserve"
     y="357"
     id="text83"
     style="font-size:14px;stroke:none;font-family:sans-serif">Registra</text>
  <text
     x="277"
     xml:space="preserve"
     y="374"
     id="text85"
     style="font-size:14px;stroke:none;font-family:sans-serif">Pagamento</text>
  <line
     y2="260"
     x1="100"
     x2="170"
     y1="260"
     id="line87"
     style="font-size:14px;fill:none;font-family:sans-serif" />
  <line
     y2="260"
     x1="170"
     x2="240"
     y1="260"
     id="line89"
     style="font-size:14px;fill:none;font-family:sans-serif" />
  <ellipse
     transform="translate(450,40)"
     rx="74"
     cx="74"
     ry="29"
     cy="29"
     id="ellipse91"
     d="M 148,29 C 148,45.016258 114.86907,58 74,58 33.130929,58 0,45.016258 0,29 0,12.983742 33.130929,0 74,0 c 40.86907,0 74,12.983742 74,29 z"
     sodipodi:cx="74"
     sodipodi:cy="29"
     sodipodi:rx="74"
     sodipodi:ry="29"
     style="font-size:14px;opacity:0.5;fill:#ffffff;stroke:none;font-family:sans-serif" />
  <ellipse
     rx="74"
     ry="29"
     cx="74"
     transform="translate(450,40)"
     cy="29"
     id="ellipse93"
     d="M 148,29 C 148,45.016258 114.86907,58 74,58 33.130929,58 0,45.016258 0,29 0,12.983742 33.130929,0 74,0 c 40.86907,0 74,12.983742 74,29 z"
     sodipodi:cx="74"
     sodipodi:cy="29"
     sodipodi:rx="74"
     sodipodi:ry="29"
     style="font-size:14px;fill:none;font-family:sans-serif;opacity:0.5" />
  <text
     x="492"
     xml:space="preserve"
     y="67"
     id="text95"
     style="font-size:14px;stroke:none;font-family:sans-serif;opacity:0.5">Visualizza</text>
  <text
     x="462"
     xml:space="preserve"
     y="84"
     id="text97"
     style="font-size:14px;stroke:none;font-family:sans-serif;opacity:0.5">Storico Pagamenti</text>
  <text
     x="671"
     xml:space="preserve"
     y="338"
     id="text99"
     style="font-size:14px;stroke:none;font-family:sans-serif;opacity:0.5">Genitore</text>
  <circle
     transform="translate(650,240)"
     r="7"
     cx="50"
     cy="7"
     id="circle101"
     d="m 57,7 c 0,3.865993 -3.134007,7 -7,7 -3.865993,0 -7,-3.134007 -7,-7 0,-3.8659932 3.134007,-7 7,-7 3.865993,0 7,3.1340068 7,7 z"
     sodipodi:cx="50"
     sodipodi:cy="7"
     sodipodi:rx="7"
     sodipodi:ry="7"
     style="font-size:14px;opacity:0.5;fill:#ffafaf;stroke:none;font-family:sans-serif" />
  <circle
     r="7"
     cx="50"
     transform="translate(650,240)"
     cy="7"
     id="circle103"
     d="m 57,7 c 0,3.865993 -3.134007,7 -7,7 -3.865993,0 -7,-3.134007 -7,-7 0,-3.8659932 3.134007,-7 7,-7 3.865993,0 7,3.1340068 7,7 z"
     sodipodi:cx="50"
     sodipodi:cy="7"
     sodipodi:rx="7"
     sodipodi:ry="7"
     style="font-size:14px;fill:none;font-family:sans-serif;opacity:0.5" />
  <line
     y2="275"
     x1="700"
     x2="700"
     y1="254"
     id="line105"
     style="font-size:14px;fill:none;font-family:sans-serif;opacity:0.5" />
  <line
     y2="258"
     x1="672"
     x2="728"
     y1="258"
     id="line107"
     style="font-size:14px;fill:none;font-family:sans-serif;opacity:0.5" />
  <line
     y2="310"
     x1="700"
     x2="686"
     y1="275"
     id="line109"
     style="font-size:14px;fill:none;font-family:sans-serif;opacity:0.5" />
  <line
     y2="310"
     x1="700"
     x2="714"
     y1="275"
     id="line111"
     style="font-size:14px;fill:none;font-family:sans-serif;opacity:0.5" />
  <line
     y2="170"
     x1="600"
     x2="635"
     y1="70"
     id="line113"
     style="font-size:14px;fill:none;font-family:sans-serif;opacity:0.5" />
  <line
     y2="270"
     x1="635"
     x2="670"
     y1="170"
     id="line115"
     style="font-size:14px;fill:none;font-family:sans-serif;opacity:0.5" />
  <line
     x1="310"
     x2="310"
     y1="190"
     y2="215"
     stroke-miterlimit="5"
     id="line117"
     style="font-size:14px;fill:none;stroke-linecap:butt;stroke-miterlimit:5;stroke-dasharray:8, 5;font-family:sans-serif" />
  <line
     x1="310"
     x2="310"
     y1="215"
     y2="240"
     stroke-miterlimit="5"
     id="line119"
     style="font-size:14px;fill:none;stroke-linecap:butt;stroke-miterlimit:5;stroke-dasharray:8, 5;font-family:sans-serif" />
  <line
     y2="202"
     x1="310"
     x2="316"
     y1="190"
     id="line121"
     style="font-size:14px;fill:none;font-family:sans-serif" />
  <line
     y2="202"
     x1="310"
     x2="304"
     y1="190"
     id="line123"
     style="font-size:14px;fill:none;font-family:sans-serif" />
  <text
     x="239"
     xml:space="preserve"
     y="212"
     id="text125"
     style="font-size:14px;stroke:none;font-family:sans-serif">                 «include»</text>
  <ellipse
     transform="translate(450,240)"
     rx="74"
     cx="74"
     ry="29"
     cy="29"
     id="ellipse127"
     d="M 148,29 C 148,45.016258 114.86907,58 74,58 33.130929,58 0,45.016258 0,29 0,12.983742 33.130929,0 74,0 c 40.86907,0 74,12.983742 74,29 z"
     sodipodi:cx="74"
     sodipodi:cy="29"
     sodipodi:rx="74"
     sodipodi:ry="29"
     style="font-size:14px;opacity:0.5;fill:#ffffff;stroke:none;font-family:sans-serif" />
  <ellipse
     rx="74"
     ry="29"
     cx="74"
     transform="translate(450,240)"
     cy="29"
     id="ellipse129"
     d="M 148,29 C 148,45.016258 114.86907,58 74,58 33.130929,58 0,45.016258 0,29 0,12.983742 33.130929,0 74,0 c 40.86907,0 74,12.983742 74,29 z"
     sodipodi:cx="74"
     sodipodi:cy="29"
     sodipodi:rx="74"
     sodipodi:ry="29"
     style="font-size:14px;fill:none;font-family:sans-serif;opacity:0.5" />
  <text
     x="492"
     xml:space="preserve"
     y="267"
     id="text131"
     style="font-size:14px;stroke:none;font-family:sans-serif;opacity:0.5">Visualizza</text>
  <text
     x="472"
     xml:space="preserve"
     y="284"
     id="text133"
     style="font-size:14px;stroke:none;font-family:sans-serif;opacity:0.5">Fattura mensile</text>
  <line
     y2="270"
     x1="600"
     x2="635"
     y1="270"
     id="line135"
     style="font-size:14px;fill:none;font-family:sans-serif;opacity:0.5" />
  <line
     y2="270"
     x1="635"
     x2="670"
     y1="270"
     id="line137"
     style="font-size:14px;fill:none;font-family:sans-serif;opacity:0.5" />
</svg>
